<svg width="512" height="512" viewBox="0 0 100 100" xmlns="http://www.w3.org/2000/svg" ><ellipse cx="50" cy="90" rx="36" ry="5" fill="#000" opacity=".35"/>
      <path d="M12 20 q10 -6 20 0 q10 6 20 0 q10 -6 20 0 q8 5 16 0 v62 q-8 5 -16 0 q-10 -6 -20 0 q-10 6 -20 0 q-10 -6 -20 0z" fill="#f0d9a0" stroke="#7a5a26" stroke-width="3"/>
      <path d="M22 66 q10 -18 22 -10 t20 -14 t14 -14" stroke="#a0522d" stroke-width="3" fill="none" stroke-dasharray="5 4" stroke-linecap="round"/>
      <path d="M66 22 l12 12 M78 22 l-12 12" stroke="#d62828" stroke-width="5" stroke-linecap="round"/>
      <circle cx="26" cy="38" r="7" fill="#7cc6a2" stroke="#3d7a5c" stroke-width="2"/><path d="M40 72 q6 -6 12 0" stroke="#3a8fd1" stroke-width="3" fill="none"/></svg>