<svg width="512" height="512" viewBox="0 0 100 100" xmlns="http://www.w3.org/2000/svg" ><defs><linearGradient id="cp8g" x1="0" y1="0" x2="0" y2="1"><stop offset="0" stop-color="#fff6c2"/><stop offset=".35" stop-color="#ffd24a"/><stop offset=".7" stop-color="#e09a12"/><stop offset="1" stop-color="#8a5300"/></linearGradient><radialGradient id="cp8f" cx=".4" cy=".35" r=".75"><stop offset="0" stop-color="#fffbe8"/><stop offset="1" stop-color="#e2c27a"/></radialGradient>
      <linearGradient id="cp8s" x1="0" y1="0" x2="1" y2="1"><stop offset="0" stop-color="#fff" stop-opacity=".7"/><stop offset=".5" stop-color="#fff" stop-opacity="0"/></linearGradient></defs>
      <ellipse cx="50" cy="92" rx="30" ry="4.5" fill="#000" opacity=".32"/>
      <circle cx="50" cy="50" r="40" fill="url(#cp8g)" stroke="#5e3d07" stroke-width="2.5"/><circle cx="50" cy="50" r="40" fill="none" stroke="#fff4c0" stroke-width="1" opacity=".6"/>
      <circle cx="50" cy="8" r="5" fill="url(#cp8g)" stroke="#5e3d07" stroke-width="2"/>
      <circle cx="50" cy="50" r="31" fill="url(#cp8f)" stroke="#8a5f12" stroke-width="2"/><path d="M50 27 L50 21" stroke="#7a5310" stroke-width="2.2"/><path d="M59.94976924149233 25.979132154706544 L61.0978195385876 23.207493557172686" stroke="#7a5310" stroke-width="1.2"/><path d="M68.38477631085024 31.61522368914976 L70.50609665440987 29.49390334559012" stroke="#7a5310" stroke-width="1.2"/><path d="M74.02086784529345 40.05023075850767 L76.79250644282732 38.90218046141239" stroke="#7a5310" stroke-width="1.2"/><path d="M73 50 L79 50" stroke="#7a5310" stroke-width="2.2"/><path d="M74.02086784529345 59.94976924149233 L76.79250644282732 61.0978195385876" stroke="#7a5310" stroke-width="1.2"/><path d="M68.38477631085024 68.38477631085024 L70.50609665440987 70.50609665440987" stroke="#7a5310" stroke-width="1.2"/><path d="M59.94976924149233 74.02086784529345 L61.09781953858761 76.79250644282732" stroke="#7a5310" stroke-width="1.2"/><path d="M50 73 L50 79" stroke="#7a5310" stroke-width="2.2"/><path d="M40.05023075850767 74.02086784529345 L38.9021804614124 76.79250644282732" stroke="#7a5310" stroke-width="1.2"/><path d="M31.615223689149765 68.38477631085024 L29.493903345590123 70.50609665440989" stroke="#7a5310" stroke-width="1.2"/><path d="M25.97913215470655 59.94976924149235 L23.20749355717269 61.09781953858762" stroke="#7a5310" stroke-width="1.2"/><path d="M27 50.00000000000001 L21 50.00000000000001" stroke="#7a5310" stroke-width="2.2"/><path d="M25.979132154706548 40.05023075850766 L23.207493557172686 38.90218046141239" stroke="#7a5310" stroke-width="1.2"/><path d="M31.61522368914976 31.61522368914977 L29.493903345590116 29.493903345590127" stroke="#7a5310" stroke-width="1.2"/><path d="M40.05023075850765 25.97913215470655 L38.90218046141238 23.20749355717269" stroke="#7a5310" stroke-width="1.2"/>
      <text x="50" y="30" font-family="Lilita One, sans-serif" font-size="9" text-anchor="middle" fill="#7a1d12">N</text>
      <g class="a-needle"><path d="M50 24 L56 50 L50 76 L44 50Z" fill="#2b2b3a"/><path d="M50 24 L56 50 L44 50Z" fill="#d62828"/><path d="M50 24 L50 50 L44 50Z" fill="#ff6b6b"/></g>
      <circle cx="50" cy="50" r="4.5" fill="url(#cp8g)" stroke="#5e3d07" stroke-width="1.5"/>
      <path class="a-shine" d="M28 34 a26 26 0 0 1 22 -15" stroke="url(#cp8s)" stroke-width="6" fill="none" stroke-linecap="round"/></svg>