<svg width="512" height="512" viewBox="0 0 100 100" xmlns="http://www.w3.org/2000/svg" ><defs><linearGradient id="sk9" x1="0" y1="0" x2="0" y2="1"><stop offset="0" stop-color="#ffffff"/><stop offset=".6" stop-color="#d7deea"/><stop offset="1" stop-color="#8f9bb3"/></linearGradient>
      <linearGradient id="sk9b" x1="0" y1="0" x2="1" y2="1"><stop offset="0" stop-color="#f4f7fb"/><stop offset="1" stop-color="#8a96ad"/></linearGradient><linearGradient id="sk9g" x1="0" y1="0" x2="0" y2="1"><stop offset="0" stop-color="#fff6c2"/><stop offset=".35" stop-color="#ffd24a"/><stop offset=".7" stop-color="#e09a12"/><stop offset="1" stop-color="#8a5300"/></linearGradient>
      <radialGradient id="sk9e" cx=".5" cy=".5" r=".5"><stop offset="0" stop-color="#ff5a3c"/><stop offset="1" stop-color="#ff5a3c" stop-opacity="0"/></radialGradient></defs>
      <ellipse cx="50" cy="92" rx="32" ry="4.5" fill="#000" opacity=".32"/>
      <g class="a-swl"><path d="M18 84 L78 22" stroke="#3a4560" stroke-width="7" stroke-linecap="round"/><path d="M18 84 L78 22" stroke="url(#sk9b)" stroke-width="4.5" stroke-linecap="round"/>
        <path d="M20 70 l12 12" stroke="url(#sk9g)" stroke-width="5" stroke-linecap="round"/><path d="M14 88 l7 -7" stroke="#7a1d12" stroke-width="5" stroke-linecap="round"/><circle cx="12" cy="90" r="3.6" fill="url(#sk9g)"/></g>
      <g class="a-swr"><path d="M82 84 L22 22" stroke="#3a4560" stroke-width="7" stroke-linecap="round"/><path d="M82 84 L22 22" stroke="url(#sk9b)" stroke-width="4.5" stroke-linecap="round"/>
        <path d="M80 70 l-12 12" stroke="url(#sk9g)" stroke-width="5" stroke-linecap="round"/><path d="M86 88 l-7 -7" stroke="#7a1d12" stroke-width="5" stroke-linecap="round"/><circle cx="88" cy="90" r="3.6" fill="url(#sk9g)"/></g>
      <path d="M27 46 q0 -28 23 -28 q23 0 23 28 q0 12 -8 17 v11 q0 3 -3 3 h-24 q-3 0 -3 -3 v-11 q-8 -5 -8 -17z" fill="url(#sk9)" stroke="#2a3348" stroke-width="2.5"/>
      <path d="M33 34 q6 -10 16 -11" stroke="#fff" stroke-width="3" fill="none" stroke-linecap="round" opacity=".8"/>
      <ellipse cx="40" cy="47" rx="7" ry="8" fill="#1d1d2b"/><ellipse cx="60" cy="47" rx="7" ry="8" fill="#1d1d2b"/>
      <g class="a-eyes" opacity="0"><circle cx="40" cy="47" r="7" fill="url(#sk9e)"/><circle cx="60" cy="47" r="7" fill="url(#sk9e)"/><circle cx="40" cy="48" r="2" fill="#ffd0c0"/><circle cx="60" cy="48" r="2" fill="#ffd0c0"/></g>
      <path d="M50 55 l-4 7 h8z" fill="#1d1d2b"/><path d="M40 77 v-8 M46 77 v-8 M54 77 v-8 M60 77 v-8" stroke="#2a3348" stroke-width="2"/></svg>